<svg xmlns="http://www.w3.org/2000/svg" style="display:none">
  <!-- Ionicons 7  :0: 2 @expo/vector-icons -->
  <symbol id="icon-home" viewBox="0 0 512 512"><path fill="currentColor" d="M80 212V448a16 16 0 0016 16h96V320a32 32 0 0132-32h80a32 32 0 0132 32v144h96a16 16 0 0016-16V212L256 96z"/></symbol>
  <symbol id="icon-grid" viewBox="0 0 512 512"><path fill="currentColor" d="M112 48H96a48 48 0 00-48 48v16a48 48 0 0048 48h16a48 48 0 0048-48V96a48 48 0 00-48-48zm160 0h-16a48 48 0 00-48 48v16a48 48 0 0048 48h16a48 48 0 0048-48V96a48 48 0 00-48-48zM112 272H96a48 48 0 00-48 48v16a48 48 0 0048 48h16a48 48 0 0048-48v-16a48 48 0 00-48-48zm160 0h-16a48 48 0 00-48 48v16a48 48 0 0048 48h16a48 48 0 0048-48v-16a48 48 0 00-48-48z"/></symbol>
  <symbol id="icon-person" viewBox="0 0 512 512"><path fill="currentColor" d="M332.64 64.58C313.18 43.57 286 32 256 32s-57.18 11.57-76.64 32.58C160.15 81.15 148 106.34 148 134.58v.09c0 28.25 12.15 53.43 31.36 69.91A99.57 99.57 0 00212 240v.08a99.45 99.45 0 00-32.64 35.42C160.15 291.85 148 317 148 345.42v.09c0 28.25 12.15 53.43 31.36 69.91C198.82 436.43 225 448 256 448s57.18-11.57 76.64-32.58C351.85 398.85 364 373.66 364 345.42v-.09c0-28.25-12.15-53.43-31.36-69.91A99.57 99.57 0 00300 272v-.08a99.45 99.45 0 0032.64-35.42C351.85 220.15 364 195 364 166.75v-.09c0-28.25-12.15-53.43-31.36-69.91z"/></symbol>
  <symbol id="icon-info" viewBox="0 0 512 512"><path fill="none" stroke="currentColor" stroke-linecap="round" stroke-linejoin="round" stroke-width="40" d="M256 40a216 216 0 10216 216A216 216 0 00256 40z"/><path fill="none" stroke="currentColor" stroke-linecap="round" stroke-linejoin="round" stroke-width="40" d="M256 322v-40"/><path fill="currentColor" d="M277.42 206.73a25.9 25.9 0 00-23.69-15.67 25.78 25.78 0 00-25 10.66 25.89 25.89 0 00-2.63 27.36 25.66 25.66 0 0019.22 13.32h.21a25.63 25.63 0 0024-18.71 25.53 25.53 0 00-2.11-17.01z"/></symbol>
  <symbol id="icon-star" viewBox="0 0 512 512"><path fill="currentColor" d="M394 480a16 16 0 01-9.39-3L256 383.65 127.39 477a16 16 0 01-24.55-18.08L153 310.35 23 221.2a16 16 0 019-29.2h160.38l48.4-148.95a16 16 0 0130.44 0l48.4 149H480a16 16 0 0114.68 22.08l-91.4 89.23 21.69 148.44A16 16 0 01394 480z"/></symbol>
  <symbol id="icon-add-circle" viewBox="0 0 512 512"><path fill="currentColor" d="M256 48C141.13 48 48 141.13 48 256s93.13 208 208 208 208-93.13 208-208S370.87 48 256 48zm96 224h-80v80a16 16 0 01-32 0v-80h-80a16 16 0 010-32h80v-80a16 16 0 0132 0v80h80a16 16 0 010 32z"/></symbol>
  <symbol id="icon-game" viewBox="0 0 512 512"><path fill="currentColor" d="M135.1 204.6c-10.7 0-19.3 8.7-19.3 19.4v63.3c0 10.7 8.7 19.4 19.3 19.4h63.3c10.7 0 19.3-8.7 19.3-19.4v-63.3c0-10.7-8.6-19.4-19.3-19.4h-63.3z"/><path fill="currentColor" d="M480 160H32c-17.7 0-32 14.3-32 32v128c0 17.7 14.3 32 32 32h448c17.7 0 32-14.3 32-32V192c0-17.7-14.3-32-32-32zM128 304c-35.3 0-64-28.7-64-64s28.7-64 64-64 64 28.7 64 64-28.7 64-64 64z"/><path fill="currentColor" d="M384 272h48v32h-48zM432 224h32v32h-32z"/></symbol>
  <symbol id="icon-chevron-back" viewBox="0 0 512 512"><path fill="none" stroke="currentColor" stroke-linecap="round" stroke-linejoin="round" stroke-width="48" d="M328 112L184 256l144 144"/></symbol>
</svg>
